<?xml version="1.0" encoding="UTF-8" standalone="no"?>
<svg
   viewBox="0 0 64 64"
   version="1.1"
   id="svg6"
   xml:space="preserve"
   xmlns="http://www.w3.org/2000/svg"
   xmlns:svg="http://www.w3.org/2000/svg"><defs
     id="defs6"><clipPath
       id="32aa2a67e2"><path
         d="M 273.445312 265.84375 C 254.078125 265.84375 238.378906 281.542969 238.378906 300.90625 C 238.378906 320.273438 254.078125 335.972656 273.445312 335.972656 C 292.808594 335.972656 308.507812 320.273438 308.507812 300.90625 C 308.507812 281.542969 292.808594 265.84375 273.445312 265.84375 Z M 273.445312 265.84375 "
         clip-rule="nonzero"
         id="path29" /></clipPath><clipPath
       id="1a707b5d0f"><path
         d="M 0.378906 0.84375 L 70.507812 0.84375 L 70.507812 70.972656 L 0.378906 70.972656 Z M 0.378906 0.84375 "
         clip-rule="nonzero"
         id="path30" /></clipPath><clipPath
       id="a78de4b1a8"><path
         d="M 35.445312 0.84375 C 16.078125 0.84375 0.378906 16.542969 0.378906 35.90625 C 0.378906 55.273438 16.078125 70.972656 35.445312 70.972656 C 54.808594 70.972656 70.507812 55.273438 70.507812 35.90625 C 70.507812 16.542969 54.808594 0.84375 35.445312 0.84375 Z M 35.445312 0.84375 "
         clip-rule="nonzero"
         id="path31" /></clipPath><clipPath
       id="830119af2a"><rect
         x="0"
         width="71"
         y="0"
         height="71"
         id="rect31" /></clipPath><clipPath
       id="1a141957a9"><path
         d="M 240.714844 297.949219 L 275.226562 309.109375 L 265.378906 339.574219 L 230.863281 328.417969 Z M 240.714844 297.949219 "
         clip-rule="nonzero"
         id="path33" /></clipPath><clipPath
       id="b60afb38db"><path
         d="M 257.960938 303.523438 C 248.433594 300.445312 238.507812 304.769531 235.789062 313.183594 C 233.070312 321.597656 238.585938 330.914062 248.109375 333.992188 C 257.632812 337.070312 267.558594 332.746094 270.277344 324.332031 C 272.996094 315.921875 267.484375 306.605469 257.960938 303.523438 Z M 257.960938 303.523438 "
         clip-rule="nonzero"
         id="path34" /></clipPath><clipPath
       id="7524f2e055"><path
         d="M 0 0 L 36 0 L 36 33 L 0 33 Z M 0 0 "
         clip-rule="nonzero"
         id="path35" /></clipPath><clipPath
       id="fc7a445c17"><path
         d="M 5.714844 -4.050781 L 40.226562 7.109375 L 30.378906 37.574219 L -4.136719 26.417969 Z M 5.714844 -4.050781 "
         clip-rule="nonzero"
         id="path36" /></clipPath><clipPath
       id="24ac955e38"><path
         d="M 22.960938 1.523438 C 13.433594 -1.554688 3.507812 2.769531 0.789062 11.183594 C -1.929688 19.597656 3.585938 28.914062 13.109375 31.992188 C 22.632812 35.070312 32.558594 30.746094 35.277344 22.332031 C 37.996094 13.921875 32.484375 4.605469 22.960938 1.523438 Z M 22.960938 1.523438 "
         clip-rule="nonzero"
         id="path37" /></clipPath><clipPath
       id="f24e924ce4"><rect
         x="0"
         width="36"
         y="0"
         height="33"
         id="rect37" /></clipPath><clipPath
       id="d1652df3fc"><path
         d="M 271.398438 296.09375 L 278.492188 304.171875 L 267.132812 314.144531 L 260.042969 306.066406 Z M 271.398438 296.09375 "
         clip-rule="nonzero"
         id="path39" /></clipPath><clipPath
       id="18d11ea9a7"><path
         d="M 274.945312 300.132812 L 267.140625 314.136719 L 260.046875 306.0625 Z M 274.945312 300.132812 "
         clip-rule="nonzero"
         id="path40" /></clipPath><clipPath
       id="7afe57b6dd"><path
         d="M 0 0 L 15 0 L 15 14.148438 L 0 14.148438 Z M 0 0 "
         clip-rule="nonzero"
         id="path41" /></clipPath><clipPath
       id="6aa623c231"><path
         d="M 11.398438 -3.90625 L 18.492188 4.171875 L 7.132812 14.144531 L 0.0429688 6.066406 Z M 11.398438 -3.90625 "
         clip-rule="nonzero"
         id="path42" /></clipPath><clipPath
       id="45ac6c0ea9"><path
         d="M 14.945312 0.132812 L 7.140625 14.136719 L 0.046875 6.0625 Z M 14.945312 0.132812 "
         clip-rule="nonzero"
         id="path43" /></clipPath><clipPath
       id="7a0e11c297"><rect
         x="0"
         width="15"
         y="0"
         height="15"
         id="rect43" /></clipPath><clipPath
       id="67896d89bb"><path
         d="M 243.667969 292.488281 L 254.40625 292.082031 L 254.964844 306.851562 L 244.222656 307.257812 Z M 243.667969 292.488281 "
         clip-rule="nonzero"
         id="path45" /></clipPath><clipPath
       id="c244b4b433"><path
         d="M 249.039062 292.285156 L 254.964844 306.851562 L 244.222656 307.257812 Z M 249.039062 292.285156 "
         clip-rule="nonzero"
         id="path46" /></clipPath><clipPath
       id="94f03d3c7a"><path
         d="M 0 0.078125 L 11 0.078125 L 11 15.429688 L 0 15.429688 Z M 0 0.078125 "
         clip-rule="nonzero"
         id="path47" /></clipPath><clipPath
       id="c85bd780be"><path
         d="M -0.332031 0.488281 L 10.40625 0.0820312 L 10.964844 14.851562 L 0.222656 15.257812 Z M -0.332031 0.488281 "
         clip-rule="nonzero"
         id="path48" /></clipPath><clipPath
       id="2ad4c19a6c"><path
         d="M 5.039062 0.285156 L 10.964844 14.851562 L 0.222656 15.257812 Z M 5.039062 0.285156 "
         clip-rule="nonzero"
         id="path49" /></clipPath><clipPath
       id="6a2179bc03"><rect
         x="0"
         width="11"
         y="0"
         height="16"
         id="rect49" /></clipPath><clipPath
       id="e9b4dfcd0e"><path
         d="M 260.820312 316.429688 L 263.582031 318.070312 L 261.757812 321.140625 L 258.996094 319.503906 Z M 260.820312 316.429688 "
         clip-rule="nonzero"
         id="path51" /></clipPath><clipPath
       id="96d616dbe5"><path
         d="M 262.199219 317.25 C 261.4375 316.796875 260.414062 317.117188 259.910156 317.964844 C 259.40625 318.8125 259.617188 319.867188 260.378906 320.320312 C 261.140625 320.773438 262.167969 320.453125 262.671875 319.605469 C 263.171875 318.757812 262.960938 317.703125 262.199219 317.25 Z M 262.199219 317.25 "
         clip-rule="nonzero"
         id="path52" /></clipPath><clipPath
       id="0907d38622"><path
         d="M 0.339844 0 L 4 0 L 4 3.863281 L 0.339844 3.863281 Z M 0.339844 0 "
         clip-rule="nonzero"
         id="path53" /></clipPath><clipPath
       id="79998c934f"><path
         d="M 1.820312 -0.570312 L 4.582031 1.070312 L 2.757812 4.140625 L -0.00390625 2.503906 Z M 1.820312 -0.570312 "
         clip-rule="nonzero"
         id="path54" /></clipPath><clipPath
       id="f849d30ea1"><path
         d="M 3.199219 0.25 C 2.4375 -0.203125 1.414062 0.117188 0.910156 0.964844 C 0.40625 1.8125 0.617188 2.867188 1.378906 3.320312 C 2.140625 3.773438 3.167969 3.453125 3.671875 2.605469 C 4.171875 1.757812 3.960938 0.703125 3.199219 0.25 Z M 3.199219 0.25 "
         clip-rule="nonzero"
         id="path55" /></clipPath><clipPath
       id="d44e745d85"><rect
         x="0"
         width="4"
         y="0"
         height="4"
         id="rect55" /></clipPath><clipPath
       id="94cbd0b88d"><path
         d="M 245.152344 310.855469 L 247.914062 312.492188 L 246.089844 315.566406 L 243.328125 313.929688 Z M 245.152344 310.855469 "
         clip-rule="nonzero"
         id="path57" /></clipPath><clipPath
       id="d954024494"><path
         d="M 246.53125 311.675781 C 245.769531 311.222656 244.742188 311.542969 244.242188 312.390625 C 243.738281 313.238281 243.949219 314.292969 244.710938 314.746094 C 245.472656 315.195312 246.5 314.875 247 314.027344 C 247.503906 313.179688 247.292969 312.128906 246.53125 311.675781 Z M 246.53125 311.675781 "
         clip-rule="nonzero"
         id="path58" /></clipPath><clipPath
       id="b603fc78d4"><path
         d="M 0.507812 0.0273438 L 4.582031 0.0273438 L 4.582031 4 L 0.507812 4 Z M 0.507812 0.0273438 "
         clip-rule="nonzero"
         id="path59" /></clipPath><clipPath
       id="bc18d56812"><path
         d="M 2.152344 -0.144531 L 4.914062 1.492188 L 3.089844 4.566406 L 0.328125 2.929688 Z M 2.152344 -0.144531 "
         clip-rule="nonzero"
         id="path60" /></clipPath><clipPath
       id="aa2f171590"><path
         d="M 3.53125 0.675781 C 2.769531 0.222656 1.742188 0.542969 1.242188 1.390625 C 0.738281 2.238281 0.949219 3.292969 1.710938 3.746094 C 2.472656 4.195312 3.5 3.875 4 3.027344 C 4.503906 2.179688 4.292969 1.128906 3.53125 0.675781 Z M 3.53125 0.675781 "
         clip-rule="nonzero"
         id="path61" /></clipPath><clipPath
       id="2854bc5a15"><rect
         x="0"
         width="5"
         y="0"
         height="4"
         id="rect61" /></clipPath><clipPath
       id="98717a7f2d"><path
         d="M 0.695312 0.300781 L 4.445312 0.300781 L 4.445312 83.453125 L 0.695312 83.453125 Z M 0.695312 0.300781 "
         clip-rule="nonzero"
         id="path63" /></clipPath><clipPath
       id="da09dd54e7"><rect
         x="0"
         width="5"
         y="0"
         height="84"
         id="rect63" /></clipPath><clipPath
       id="42275ff92d"><path
         d="M 0.773438 0.875 L 83.929688 0.875 L 83.929688 4.621094 L 0.773438 4.621094 Z M 0.773438 0.875 "
         clip-rule="nonzero"
         id="path65" /></clipPath><clipPath
       id="2b702ffb38"><rect
         x="0"
         width="84"
         y="0"
         height="5"
         id="rect65" /></clipPath><clipPath
       clipPathUnits="userSpaceOnUse"
       id="clipPath98"><path
         d="M 0,0.140625 H 612 V 575.85937 H 0 Z m 0,0"
         clip-rule="nonzero"
         id="path99"
         style="stroke-width:0.999997" /></clipPath><clipPath
       clipPathUnits="userSpaceOnUse"
       id="clipPath99"><path
         d="M 0,0.140625 H 612 V 575.85937 H 0 Z m 0,0"
         clip-rule="nonzero"
         id="path100"
         style="stroke-width:0.999997" /></clipPath><clipPath
       clipPathUnits="userSpaceOnUse"
       id="clipPath100"><path
         d="M 0,0.140625 H 612 V 575.85937 H 0 Z m 0,0"
         clip-rule="nonzero"
         id="path102"
         style="stroke-width:0.999997" /></clipPath><clipPath
       clipPathUnits="userSpaceOnUse"
       id="clipPath102"><path
         d="M 0,0.140625 H 612 V 575.85937 H 0 Z m 0,0"
         clip-rule="nonzero"
         id="path103"
         style="stroke-width:0.999997" /></clipPath><clipPath
       clipPathUnits="userSpaceOnUse"
       id="clipPath103"><path
         d="M 0,0.140625 H 612 V 575.85937 H 0 Z m 0,0"
         clip-rule="nonzero"
         id="path104"
         style="stroke-width:0.999997" /></clipPath><clipPath
       clipPathUnits="userSpaceOnUse"
       id="clipPath104"><path
         d="M 0,0.140625 H 612 V 575.85937 H 0 Z m 0,0"
         clip-rule="nonzero"
         id="path105"
         style="stroke-width:0.999997" /></clipPath><clipPath
       clipPathUnits="userSpaceOnUse"
       id="clipPath105"><path
         d="M 0,0.140625 H 612 V 575.85937 H 0 Z m 0,0"
         clip-rule="nonzero"
         id="path106"
         style="stroke-width:0.999997" /></clipPath><clipPath
       clipPathUnits="userSpaceOnUse"
       id="clipPath106"><path
         d="M 0,0.140625 H 612 V 575.85937 H 0 Z m 0,0"
         clip-rule="nonzero"
         id="path107"
         style="stroke-width:0.999997" /></clipPath></defs><g
     _ngcontent-ng-c3142825728=""
     id="spookjesraam"
     style="display: inline;"
     transform="translate(32 32) scale(0.15) translate(-160 -280)"><g
       _ngcontent-ng-c3142825728=""
       id="spookje"
       style="display: inline;"><circle
         style="fill:#000000;stroke:none;stroke-width:7.89718"
         id="path113"
         cx="164.83676"
         cy="282.00549"
         r="205.74724" /><g
         clip-path="url(#clipPath106)"
         id="g121"
         transform="matrix(4.3179216,0,0,4.3179216,-1011.3325,-1028.7492)"><g
           clip-path="url(#32aa2a67e2)"
           id="g120"><g
             transform="translate(238,265)"
             id="g119"><g
               clip-path="url(#830119af2a)"
               id="g118"><g
                 clip-path="url(#1a707b5d0f)"
                 id="g117"><g
                   clip-path="url(#a78de4b1a8)"
                   id="g116"><path
                     fill="#ffffff"
                     d="M 0.378906,0.84375 H 70.507812 V 70.972656 H 0.378906 Z m 0,0"
                     fill-opacity="1"
                     fill-rule="nonzero"
                     id="path115" /></g></g></g></g></g></g><g
         clip-path="url(#clipPath105)"
         id="g129"
         transform="matrix(4.3179216,0,0,4.3179216,-1011.3325,-1028.7492)"><g
           clip-path="url(#1a141957a9)"
           id="g128"><g
             clip-path="url(#b60afb38db)"
             id="g127"><g
               transform="translate(235,302)"
               id="g126"><g
                 clip-path="url(#f24e924ce4)"
                 id="g125"><g
                   clip-path="url(#7524f2e055)"
                   id="g124"><g
                     clip-path="url(#fc7a445c17)"
                     id="g123"><g
                       clip-path="url(#24ac955e38)"
                       id="g122"><path
                         fill="#000000"
                         d="M 5.714844,-4.050781 40.226562,7.109375 30.378906,37.574219 -4.136719,26.417969 Z m 0,0"
                         fill-opacity="1"
                         fill-rule="nonzero"
                         id="path121" /></g></g></g></g></g></g></g></g><g
         clip-path="url(#clipPath104)"
         id="g137"
         transform="matrix(4.3179216,0,0,4.3179216,-1011.3325,-1028.7492)"><g
           clip-path="url(#d1652df3fc)"
           id="g136"><g
             clip-path="url(#18d11ea9a7)"
             id="g135"><g
               transform="translate(260,300)"
               id="g134"><g
                 clip-path="url(#7a0e11c297)"
                 id="g133"><g
                   clip-path="url(#7afe57b6dd)"
                   id="g132"><g
                     clip-path="url(#6aa623c231)"
                     id="g131"><g
                       clip-path="url(#45ac6c0ea9)"
                       id="g130"><path
                         fill="#000000"
                         d="M 11.398438,-3.90625 18.492188,4.171875 7.132812,14.144531 0.0429688,6.066406 Z m 0,0"
                         fill-opacity="1"
                         fill-rule="nonzero"
                         id="path129" /></g></g></g></g></g></g></g></g><g
         clip-path="url(#clipPath103)"
         id="g145"
         transform="matrix(4.3179216,0,0,4.3179216,-1011.3325,-1028.7492)"><g
           clip-path="url(#67896d89bb)"
           id="g144"><g
             clip-path="url(#c244b4b433)"
             id="g143"><g
               transform="translate(244,292)"
               id="g142"><g
                 clip-path="url(#6a2179bc03)"
                 id="g141"><g
                   clip-path="url(#94f03d3c7a)"
                   id="g140"><g
                     clip-path="url(#c85bd780be)"
                     id="g139"><g
                       clip-path="url(#2ad4c19a6c)"
                       id="g138"><path
                         fill="#000000"
                         d="M -0.332031,0.488281 10.40625,0.0820312 10.964844,14.851562 0.222656,15.257812 Z m 0,0"
                         fill-opacity="1"
                         fill-rule="nonzero"
                         id="path137" /></g></g></g></g></g></g></g></g><g
         clip-path="url(#clipPath102)"
         id="g153"
         transform="matrix(4.3179216,0,0,4.3179216,-1011.3325,-1028.7492)"><g
           clip-path="url(#e9b4dfcd0e)"
           id="g152"><g
             clip-path="url(#96d616dbe5)"
             id="g151"><g
               transform="translate(259,317)"
               id="g150"><g
                 clip-path="url(#d44e745d85)"
                 id="g149"><g
                   clip-path="url(#0907d38622)"
                   id="g148"><g
                     clip-path="url(#79998c934f)"
                     id="g147"><g
                       clip-path="url(#f849d30ea1)"
                       id="g146"><path
                         fill="#ffffff"
                         d="M 1.820312,-0.570312 4.582031,1.070312 2.757812,4.140625 -0.00390625,2.503906 Z m 0,0"
                         fill-opacity="1"
                         fill-rule="nonzero"
                         id="path145" /></g></g></g></g></g></g></g></g><g
         clip-path="url(#clipPath100)"
         id="g161"
         transform="matrix(4.3179216,0,0,4.3179216,-1011.3325,-1028.7492)"><g
           clip-path="url(#94cbd0b88d)"
           id="g160"><g
             clip-path="url(#d954024494)"
             id="g159"><g
               transform="translate(243,311)"
               id="g158"><g
                 clip-path="url(#2854bc5a15)"
                 id="g157"><g
                   clip-path="url(#b603fc78d4)"
                   id="g156"><g
                     clip-path="url(#bc18d56812)"
                     id="g155"><g
                       clip-path="url(#aa2f171590)"
                       id="g154"><path
                         fill="#ffffff"
                         d="M 2.152344,-0.144531 4.914062,1.492188 3.089844,4.566406 0.328125,2.929688 Z m 0,0"
                         fill-opacity="1"
                         fill-rule="nonzero"
                         id="path153" /></g></g></g></g></g></g></g></g><g
         clip-path="url(#clipPath99)"
         id="g165"
         transform="matrix(4.3179216,0,0,4.3179216,-1011.3325,-1028.7492)"><g
           transform="translate(269,257)"
           id="g164"><g
             clip-path="url(#da09dd54e7)"
             id="g163"><g
               clip-path="url(#98717a7f2d)"
               id="g162"><path
                 fill="#000000"
                 d="m 0.695312,0.300781 h 3.75 v 83.144531 h -3.75 z m 0,0"
                 fill-opacity="1"
                 fill-rule="nonzero"
                 id="path161" /></g></g></g></g><g
         clip-path="url(#clipPath98)"
         id="g169"
         transform="matrix(4.3179216,0,0,4.3179216,-1011.3325,-1028.7492)"><g
           transform="translate(236,298)"
           id="g168"><g
             clip-path="url(#2b702ffb38)"
             id="g167"><g
               clip-path="url(#42275ff92d)"
               id="g166"><path
                 fill="#000000"
                 d="M 0.773438,4.621094 V 0.875 h 83.148437 v 3.746094 z m 0,0"
                 fill-opacity="1"
                 fill-rule="nonzero"
                 id="path165" /></g></g></g></g></g></g></svg>
