<svg xmlns="http://www.w3.org/2000/svg" xmlns:xlink="http://www.w3.org/1999/xlink" width="1366" zoomAndPan="magnify" viewBox="0 0 1024.5 576" height="768" preserveAspectRatio="xMidYMid meet" version="1.0"><defs><filter x="0%" y="0%" width="100%" height="100%" id="fb9629ea63"><feColorMatrix values="0 0 0 0 1 0 0 0 0 1 0 0 0 0 1 0 0 0 1 0" color-interpolation-filters="sRGB"/></filter><g/><clipPath id="fc78ab33b6"><path d="M 0 0.140625 L 1024 0.140625 L 1024 575.859375 L 0 575.859375 Z M 0 0.140625 " clip-rule="nonzero"/></clipPath><clipPath id="17f856b641"><path d="M 232 0.140625 L 792 0.140625 L 792 575.859375 L 232 575.859375 Z M 232 0.140625 " clip-rule="nonzero"/></clipPath><clipPath id="994bd37a9b"><path d="M 190 0.140625 L 369.96875 0.140625 L 369.96875 91.875 L 190 91.875 Z M 190 0.140625 " clip-rule="nonzero"/></clipPath><clipPath id="d1b698f962"><path d="M 190.019531 0.136719 C 190.019531 50.105469 230.984375 91.875 279.992188 91.875 C 329 91.875 369.96875 50.105469 369.96875 0.136719 Z M 190.019531 0.136719 " clip-rule="nonzero"/></clipPath><clipPath id="dbff13704f"><path d="M 0 0.140625 L 179.96875 0.140625 L 179.96875 91.875 L 0 91.875 Z M 0 0.140625 " clip-rule="nonzero"/></clipPath><clipPath id="9877c5ce69"><path d="M 0.0195312 0.136719 C 0.0195312 50.105469 40.984375 91.875 89.992188 91.875 C 139 91.875 179.96875 50.105469 179.96875 0.136719 Z M 0.0195312 0.136719 " clip-rule="nonzero"/></clipPath><clipPath id="94404e5a68"><rect x="0" width="180" y="0" height="92"/></clipPath><clipPath id="17b5633142"><path d="M 0.925781 22 L 559.132812 22 L 559.132812 575.859375 L 0.925781 575.859375 Z M 0.925781 22 " clip-rule="nonzero"/></clipPath><mask id="3001ac778e"><g filter="url(#fb9629ea63)"><rect x="-457.39" width="1475.28" fill="#000000" y="-126.72" height="829.44" fill-opacity="0.34"/></g></mask><clipPath id="a8d1fb5bd5"><path d="M 0.96875 0.289062 L 559.03125 0.289062 L 559.03125 553.859375 L 0.96875 553.859375 Z M 0.96875 0.289062 " clip-rule="nonzero"/></clipPath><clipPath id="809de33023"><path d="M 280 0.289062 L 559.03125 562.996094 L 0.96875 562.996094 Z M 280 0.289062 " clip-rule="nonzero"/></clipPath><clipPath id="933bd80df4"><path d="M 0.96875 0.289062 L 559.03125 0.289062 L 559.03125 553.859375 L 0.96875 553.859375 Z M 0.96875 0.289062 " clip-rule="nonzero"/></clipPath><clipPath id="556f9e5bd9"><path d="M 280 0.289062 L 559.03125 562.996094 L 0.96875 562.996094 Z M 280 0.289062 " clip-rule="nonzero"/></clipPath><clipPath id="56ac9d8687"><rect x="0" width="560" y="0" height="554"/></clipPath><clipPath id="bea859bf94"><rect x="0" width="560" y="0" height="554"/></clipPath><clipPath id="6545f18078"><rect x="0" width="560" y="0" height="576"/></clipPath></defs><g clip-path="url(#fc78ab33b6)"><path fill="#ffffff" d="M 0 0.140625 L 1024 0.140625 L 1024 575.859375 L 0 575.859375 Z M 0 0.140625 " fill-opacity="1" fill-rule="nonzero"/><path fill="#545454" d="M 0 0.140625 L 1024 0.140625 L 1024 575.859375 L 0 575.859375 Z M 0 0.140625 " fill-opacity="1" fill-rule="nonzero"/></g><g clip-path="url(#17f856b641)"><g transform="matrix(1, 0, 0, 1, 232, -0.000000000000058398)"><g clip-path="url(#6545f18078)"><g clip-path="url(#994bd37a9b)"><g clip-path="url(#d1b698f962)"><g transform="matrix(1, 0, 0, 1, 190, -0.000000000000058398)"><g clip-path="url(#94404e5a68)"><g clip-path="url(#dbff13704f)"><g clip-path="url(#9877c5ce69)"><path fill="#feedaa" d="M 179.96875 91.875 L 0.0742188 91.875 L 0.0742188 0.136719 L 179.96875 0.136719 Z M 179.96875 91.875 " fill-opacity="1" fill-rule="nonzero"/></g></g></g></g></g></g><g clip-path="url(#17b5633142)"><g mask="url(#3001ac778e)"><g transform="matrix(1, 0, 0, 1, 0, 22)"><g clip-path="url(#bea859bf94)"><g clip-path="url(#a8d1fb5bd5)"><g clip-path="url(#809de33023)"><g transform="matrix(1, 0, 0, 1, 0, -0.000000000000060396)"><g clip-path="url(#56ac9d8687)"><g clip-path="url(#933bd80df4)"><g clip-path="url(#556f9e5bd9)"><path fill="#feedaa" d="M 0.96875 0.289062 L 559.03125 0.289062 L 559.03125 562.710938 L 0.96875 562.710938 Z M 0.96875 0.289062 " fill-opacity="1" fill-rule="nonzero"/></g></g></g></g></g></g></g></g></g></g><g fill="#000000" fill-opacity="1"><g transform="translate(211.333265, 42.648129)"><g><path d="M 2.203125 -0.734375 L 2.203125 -13.75 C 2.203125 -13.925781 2.09375 -14.015625 1.875 -14.015625 L 0.796875 -14.015625 L 0.796875 -14.4375 L 5.46875 -14.4375 L 5.46875 -14.015625 L 4.390625 -14.015625 C 4.179688 -14.015625 4.078125 -13.925781 4.078125 -13.75 L 4.078125 -0.734375 C 4.078125 -0.515625 4.179688 -0.40625 4.390625 -0.40625 L 5.46875 -0.40625 L 5.46875 0 L 0.796875 0 L 0.796875 -0.40625 L 1.875 -0.40625 C 2.09375 -0.40625 2.203125 -0.515625 2.203125 -0.734375 Z M 2.203125 -0.734375 "/></g></g></g><g fill="#000000" fill-opacity="1"><g transform="translate(217.609573, 42.648129)"><g><path d="M 10.359375 -6.6875 L 10.359375 -0.6875 C 10.359375 -0.5 10.460938 -0.40625 10.671875 -0.40625 L 11.75 -0.40625 L 11.75 0 L 7.625 0 L 7.625 -0.40625 L 8.390625 -0.40625 C 8.597656 -0.40625 8.703125 -0.5 8.703125 -0.6875 L 8.703125 -6.984375 C 8.703125 -7.765625 8.53125 -8.34375 8.1875 -8.71875 C 7.84375 -9.09375 7.390625 -9.28125 6.828125 -9.28125 C 6.035156 -9.28125 5.378906 -8.804688 4.859375 -7.859375 C 4.335938 -6.921875 4.078125 -5.578125 4.078125 -3.828125 L 4.078125 -0.734375 C 4.078125 -0.515625 4.179688 -0.40625 4.390625 -0.40625 L 5.15625 -0.40625 L 5.15625 0 L 1.03125 0 L 1.03125 -0.40625 L 2.109375 -0.40625 C 2.316406 -0.40625 2.421875 -0.5 2.421875 -0.6875 L 2.421875 -9.15625 C 2.421875 -9.375 2.316406 -9.484375 2.109375 -9.484375 L 1.03125 -9.484375 L 1.03125 -9.890625 L 2.15625 -9.890625 C 3.070312 -9.890625 3.710938 -9.9375 4.078125 -10.03125 L 4.078125 -6.921875 C 4.597656 -9.085938 5.742188 -10.171875 7.515625 -10.171875 C 8.304688 -10.171875 8.976562 -9.882812 9.53125 -9.3125 C 10.082031 -8.738281 10.359375 -7.863281 10.359375 -6.6875 Z M 10.359375 -6.6875 "/></g></g></g><g fill="#000000" fill-opacity="1"><g transform="translate(230.162188, 42.648129)"><g/></g></g><g fill="#000000" fill-opacity="1"><g transform="translate(235.888747, 42.648129)"><g><path d="M 3.15625 -12.328125 L 3.5 -12.328125 L 3.5 -9.890625 L 5.796875 -9.890625 L 5.796875 -9.484375 L 3.5 -9.484375 L 3.5 -1.71875 C 3.5 -0.894531 3.726562 -0.484375 4.1875 -0.484375 C 4.40625 -0.484375 4.59375 -0.582031 4.75 -0.78125 C 4.914062 -0.976562 5 -1.207031 5 -1.46875 C 5 -1.726562 4.972656 -1.972656 4.921875 -2.203125 L 5.359375 -2.265625 C 5.421875 -2.035156 5.453125 -1.785156 5.453125 -1.515625 C 5.453125 -0.960938 5.285156 -0.523438 4.953125 -0.203125 C 4.628906 0.117188 4.195312 0.28125 3.65625 0.28125 C 3.125 0.28125 2.691406 0.0585938 2.359375 -0.375 C 2.023438 -0.8125 1.859375 -1.46875 1.859375 -2.34375 L 1.859375 -9.15625 C 1.859375 -9.375 1.75 -9.484375 1.53125 -9.484375 L 0.453125 -9.484375 L 0.453125 -9.890625 L 1.578125 -9.890625 C 2.066406 -9.890625 2.59375 -10.703125 3.15625 -12.328125 Z M 3.15625 -12.328125 "/></g></g></g><g fill="#000000" fill-opacity="1"><g transform="translate(242.142149, 42.648129)"><g><path d="M 10.015625 -6.6875 L 10.015625 -0.6875 C 10.015625 -0.5 10.117188 -0.40625 10.328125 -0.40625 L 11.40625 -0.40625 L 11.40625 0 L 7.28125 0 L 7.28125 -0.40625 L 8.046875 -0.40625 C 8.253906 -0.40625 8.359375 -0.5 8.359375 -0.6875 L 8.359375 -6.984375 C 8.359375 -7.765625 8.1875 -8.34375 7.84375 -8.71875 C 7.5 -9.09375 7.046875 -9.28125 6.484375 -9.28125 C 5.691406 -9.28125 5.035156 -8.804688 4.515625 -7.859375 C 3.992188 -6.921875 3.734375 -5.578125 3.734375 -3.828125 L 3.734375 -0.734375 C 3.734375 -0.515625 3.835938 -0.40625 4.046875 -0.40625 L 4.8125 -0.40625 L 4.8125 0 L 0.6875 0 L 0.6875 -0.40625 L 1.765625 -0.40625 C 1.972656 -0.40625 2.078125 -0.5 2.078125 -0.6875 L 2.078125 -14.109375 C 2.078125 -14.328125 1.972656 -14.4375 1.765625 -14.4375 L 0.6875 -14.4375 L 0.6875 -14.84375 L 1.8125 -14.84375 C 2.726562 -14.84375 3.367188 -14.890625 3.734375 -14.984375 L 3.734375 -6.921875 C 4.253906 -9.085938 5.398438 -10.171875 7.171875 -10.171875 C 7.960938 -10.171875 8.632812 -9.882812 9.1875 -9.3125 C 9.738281 -8.738281 10.015625 -7.863281 10.015625 -6.6875 Z M 10.015625 -6.6875 "/></g></g></g><g fill="#000000" fill-opacity="1"><g transform="translate(254.236639, 42.648129)"><g><path d="M 5.546875 -10.171875 C 6.597656 -10.171875 7.425781 -9.816406 8.03125 -9.109375 C 8.644531 -8.410156 8.953125 -7.382812 8.953125 -6.03125 C 8.953125 -5.75 8.9375 -5.441406 8.90625 -5.109375 L 2.65625 -5.109375 L 2.65625 -4.953125 C 2.65625 -3.492188 2.914062 -2.347656 3.4375 -1.515625 C 3.96875 -0.691406 4.648438 -0.28125 5.484375 -0.28125 C 6.316406 -0.28125 7 -0.492188 7.53125 -0.921875 C 8.070312 -1.347656 8.441406 -1.957031 8.640625 -2.75 L 9.078125 -2.65625 C 8.890625 -1.726562 8.46875 -1.003906 7.8125 -0.484375 C 7.15625 0.0234375 6.398438 0.28125 5.546875 0.28125 C 4.210938 0.28125 3.109375 -0.179688 2.234375 -1.109375 C 1.359375 -2.046875 0.921875 -3.320312 0.921875 -4.9375 C 0.921875 -6.550781 1.363281 -7.828125 2.25 -8.765625 C 3.132812 -9.703125 4.234375 -10.171875 5.546875 -10.171875 Z M 7.375 -6.796875 C 7.375 -8.679688 6.671875 -9.625 5.265625 -9.625 C 4.566406 -9.625 3.96875 -9.238281 3.46875 -8.46875 C 2.96875 -7.707031 2.707031 -6.738281 2.6875 -5.5625 L 7.28125 -5.5625 C 7.34375 -6.082031 7.375 -6.492188 7.375 -6.796875 Z M 7.375 -6.796875 "/></g></g></g><g fill="#000000" fill-opacity="1"><g transform="translate(264.338288, 42.648129)"><g/></g></g><g fill="#000000" fill-opacity="1"><g transform="translate(270.064847, 42.648129)"><g><path d="M 3.890625 -6.203125 L 6.28125 -5.3125 C 6.84375 -5.101562 7.269531 -4.78125 7.5625 -4.34375 C 7.863281 -3.90625 8.015625 -3.421875 8.015625 -2.890625 C 8.015625 -2.066406 7.6875 -1.332031 7.03125 -0.6875 C 6.375 -0.0390625 5.488281 0.28125 4.375 0.28125 C 3.269531 0.28125 2.234375 0.0703125 1.265625 -0.34375 C 1.347656 -0.707031 1.390625 -1.347656 1.390625 -2.265625 L 1.390625 -3.1875 L 1.8125 -3.1875 L 1.96875 -2 C 2.101562 -0.851562 2.90625 -0.28125 4.375 -0.28125 C 5.03125 -0.28125 5.578125 -0.476562 6.015625 -0.875 C 6.453125 -1.28125 6.671875 -1.742188 6.671875 -2.265625 C 6.671875 -2.984375 6.234375 -3.503906 5.359375 -3.828125 L 2.984375 -4.71875 C 2.441406 -4.914062 2.03125 -5.226562 1.75 -5.65625 C 1.476562 -6.082031 1.34375 -6.5625 1.34375 -7.09375 C 1.34375 -7.90625 1.632812 -8.617188 2.21875 -9.234375 C 2.800781 -9.859375 3.53125 -10.171875 4.40625 -10.171875 C 5.289062 -10.171875 6.28125 -9.960938 7.375 -9.546875 C 7.28125 -9.179688 7.234375 -8.539062 7.234375 -7.625 L 7.234375 -6.71875 L 6.828125 -6.71875 L 6.671875 -7.90625 C 6.546875 -9 5.847656 -9.546875 4.578125 -9.546875 C 4.015625 -9.546875 3.550781 -9.367188 3.1875 -9.015625 C 2.820312 -8.671875 2.640625 -8.257812 2.640625 -7.78125 C 2.640625 -7.050781 3.054688 -6.523438 3.890625 -6.203125 Z M 3.890625 -6.203125 "/></g></g></g><g fill="#000000" fill-opacity="1"><g transform="translate(279.112812, 42.648129)"><g><path d="M 2.078125 4.21875 L 2.078125 -9.15625 C 2.078125 -9.375 1.972656 -9.484375 1.765625 -9.484375 L 0.6875 -9.484375 L 0.6875 -9.890625 L 1.8125 -9.890625 C 2.726562 -9.890625 3.367188 -9.9375 3.734375 -10.03125 L 3.734375 -6.828125 C 3.992188 -7.921875 4.410156 -8.75 4.984375 -9.3125 C 5.554688 -9.882812 6.191406 -10.171875 6.890625 -10.171875 C 7.859375 -10.171875 8.707031 -9.6875 9.4375 -8.71875 C 10.164062 -7.757812 10.53125 -6.484375 10.53125 -4.890625 C 10.53125 -3.304688 10.113281 -2.046875 9.28125 -1.109375 C 8.457031 -0.179688 7.375 0.28125 6.03125 0.28125 C 5.1875 0.28125 4.421875 0.0703125 3.734375 -0.34375 L 3.734375 4.21875 C 3.734375 4.425781 3.835938 4.53125 4.046875 4.53125 L 5.59375 4.53125 L 5.59375 4.953125 L 0.6875 4.953125 L 0.6875 4.53125 L 1.765625 4.53125 C 1.972656 4.53125 2.078125 4.425781 2.078125 4.21875 Z M 8.796875 -4.84375 C 8.796875 -6.269531 8.570312 -7.367188 8.125 -8.140625 C 7.6875 -8.910156 7.125 -9.296875 6.4375 -9.296875 C 5.757812 -9.296875 5.140625 -8.84375 4.578125 -7.9375 C 4.015625 -7.039062 3.734375 -5.742188 3.734375 -4.046875 L 3.734375 -0.96875 C 4.398438 -0.519531 5.132812 -0.296875 5.9375 -0.296875 C 6.738281 -0.296875 7.414062 -0.695312 7.96875 -1.5 C 8.519531 -2.3125 8.796875 -3.425781 8.796875 -4.84375 Z M 8.796875 -4.84375 "/></g></g></g><g fill="#000000" fill-opacity="1"><g transform="translate(290.565919, 42.648129)"><g><path d="M 2.203125 -1.109375 C 1.347656 -2.046875 0.921875 -3.320312 0.921875 -4.9375 C 0.921875 -6.5625 1.347656 -7.835938 2.203125 -8.765625 C 3.054688 -9.703125 4.171875 -10.171875 5.546875 -10.171875 C 6.921875 -10.171875 8.035156 -9.703125 8.890625 -8.765625 C 9.753906 -7.835938 10.1875 -6.5625 10.1875 -4.9375 C 10.1875 -3.320312 9.753906 -2.046875 8.890625 -1.109375 C 8.035156 -0.179688 6.921875 0.28125 5.546875 0.28125 C 4.171875 0.28125 3.054688 -0.179688 2.203125 -1.109375 Z M 3.484375 -8.390625 C 2.929688 -7.546875 2.65625 -6.394531 2.65625 -4.9375 C 2.65625 -3.488281 2.929688 -2.34375 3.484375 -1.5 C 4.035156 -0.65625 4.722656 -0.234375 5.546875 -0.234375 C 6.367188 -0.234375 7.054688 -0.65625 7.609375 -1.5 C 8.171875 -2.34375 8.453125 -3.488281 8.453125 -4.9375 C 8.453125 -6.394531 8.171875 -7.546875 7.609375 -8.390625 C 7.054688 -9.242188 6.367188 -9.671875 5.546875 -9.671875 C 4.722656 -9.671875 4.035156 -9.242188 3.484375 -8.390625 Z M 3.484375 -8.390625 "/></g></g></g><g fill="#000000" fill-opacity="1"><g transform="translate(301.675441, 42.648129)"><g><path d="M 3.15625 -12.328125 L 3.5 -12.328125 L 3.5 -9.890625 L 5.796875 -9.890625 L 5.796875 -9.484375 L 3.5 -9.484375 L 3.5 -1.71875 C 3.5 -0.894531 3.726562 -0.484375 4.1875 -0.484375 C 4.40625 -0.484375 4.59375 -0.582031 4.75 -0.78125 C 4.914062 -0.976562 5 -1.207031 5 -1.46875 C 5 -1.726562 4.972656 -1.972656 4.921875 -2.203125 L 5.359375 -2.265625 C 5.421875 -2.035156 5.453125 -1.785156 5.453125 -1.515625 C 5.453125 -0.960938 5.285156 -0.523438 4.953125 -0.203125 C 4.628906 0.117188 4.195312 0.28125 3.65625 0.28125 C 3.125 0.28125 2.691406 0.0585938 2.359375 -0.375 C 2.023438 -0.8125 1.859375 -1.46875 1.859375 -2.34375 L 1.859375 -9.15625 C 1.859375 -9.375 1.75 -9.484375 1.53125 -9.484375 L 0.453125 -9.484375 L 0.453125 -9.890625 L 1.578125 -9.890625 C 2.066406 -9.890625 2.59375 -10.703125 3.15625 -12.328125 Z M 3.15625 -12.328125 "/></g></g></g><g fill="#000000" fill-opacity="1"><g transform="translate(307.928843, 42.648129)"><g><path d="M 2.078125 -0.734375 L 2.078125 -14.109375 C 2.078125 -14.328125 1.972656 -14.4375 1.765625 -14.4375 L 0.6875 -14.4375 L 0.6875 -14.84375 L 1.8125 -14.84375 C 2.726562 -14.84375 3.367188 -14.890625 3.734375 -14.984375 L 3.734375 -0.734375 C 3.734375 -0.515625 3.835938 -0.40625 4.046875 -0.40625 L 5.125 -0.40625 L 5.125 0 L 0.6875 0 L 0.6875 -0.40625 L 1.765625 -0.40625 C 1.972656 -0.40625 2.078125 -0.515625 2.078125 -0.734375 Z M 2.078125 -0.734375 "/></g></g></g><g fill="#000000" fill-opacity="1"><g transform="translate(313.747025, 42.648129)"><g><path d="M 2.421875 -0.734375 L 2.421875 -9.15625 C 2.421875 -9.375 2.316406 -9.484375 2.109375 -9.484375 L 1.03125 -9.484375 L 1.03125 -9.890625 L 2.15625 -9.890625 C 3.070312 -9.890625 3.710938 -9.9375 4.078125 -10.03125 L 4.078125 -0.6875 C 4.078125 -0.5 4.179688 -0.40625 4.390625 -0.40625 L 5.46875 -0.40625 L 5.46875 0 L 1.03125 0 L 1.03125 -0.40625 L 2.109375 -0.40625 C 2.316406 -0.40625 2.421875 -0.515625 2.421875 -0.734375 Z M 2.484375 -12.421875 C 2.273438 -12.628906 2.171875 -12.882812 2.171875 -13.1875 C 2.171875 -13.5 2.273438 -13.753906 2.484375 -13.953125 C 2.691406 -14.160156 2.945312 -14.265625 3.25 -14.265625 C 3.550781 -14.265625 3.804688 -14.160156 4.015625 -13.953125 C 4.222656 -13.753906 4.328125 -13.5 4.328125 -13.1875 C 4.328125 -12.882812 4.222656 -12.628906 4.015625 -12.421875 C 3.804688 -12.222656 3.550781 -12.125 3.25 -12.125 C 2.945312 -12.125 2.691406 -12.222656 2.484375 -12.421875 Z M 2.484375 -12.421875 "/></g></g></g><g fill="#000000" fill-opacity="1"><g transform="translate(319.908804, 42.648129)"><g><path d="M 9.796875 -9.625 L 9.625 -9.640625 C 9.488281 -10.585938 9.144531 -11.0625 8.59375 -11.0625 C 8.3125 -11.0625 8.054688 -10.914062 7.828125 -10.625 C 7.597656 -10.332031 7.460938 -9.953125 7.421875 -9.484375 C 8.242188 -8.859375 8.65625 -7.988281 8.65625 -6.875 C 8.65625 -5.757812 8.332031 -4.898438 7.6875 -4.296875 C 7.039062 -3.691406 6.195312 -3.390625 5.15625 -3.390625 L 3.109375 -3.390625 C 2.734375 -3.390625 2.441406 -3.28125 2.234375 -3.0625 C 2.023438 -2.851562 1.921875 -2.601562 1.921875 -2.3125 C 1.921875 -2.019531 2.023438 -1.765625 2.234375 -1.546875 C 2.441406 -1.335938 2.734375 -1.234375 3.109375 -1.234375 L 6.9375 -1.234375 C 7.851562 -1.234375 8.546875 -1.023438 9.015625 -0.609375 C 9.484375 -0.191406 9.71875 0.335938 9.71875 0.984375 C 9.71875 2.003906 9.234375 2.960938 8.265625 3.859375 C 7.304688 4.765625 6.109375 5.21875 4.671875 5.21875 C 3.578125 5.21875 2.6875 4.957031 2 4.4375 C 1.3125 3.925781 0.96875 3.269531 0.96875 2.46875 C 0.96875 1.675781 1.382812 0.914062 2.21875 0.1875 C 1.820312 0.0703125 1.503906 -0.15625 1.265625 -0.5 C 1.035156 -0.84375 0.921875 -1.265625 0.921875 -1.765625 C 0.921875 -2.265625 1.101562 -2.71875 1.46875 -3.125 C 1.832031 -3.53125 2.378906 -3.734375 3.109375 -3.734375 L 3.453125 -3.734375 C 2.265625 -4.285156 1.671875 -5.300781 1.671875 -6.78125 C 1.671875 -7.832031 1.988281 -8.660156 2.625 -9.265625 C 3.269531 -9.867188 4.113281 -10.171875 5.15625 -10.171875 C 5.84375 -10.171875 6.445312 -10.035156 6.96875 -9.765625 C 7.070312 -10.367188 7.285156 -10.867188 7.609375 -11.265625 C 7.941406 -11.660156 8.378906 -11.859375 8.921875 -11.859375 C 9.460938 -11.859375 9.910156 -11.710938 10.265625 -11.421875 C 10.628906 -11.140625 10.8125 -10.828125 10.8125 -10.484375 C 10.8125 -9.910156 10.472656 -9.625 9.796875 -9.625 Z M 6.9375 0.28125 L 2.9375 0.28125 C 2.445312 0.84375 2.203125 1.484375 2.203125 2.203125 C 2.203125 2.921875 2.414062 3.507812 2.84375 3.96875 C 3.269531 4.4375 3.957031 4.671875 4.90625 4.671875 C 5.863281 4.671875 6.734375 4.332031 7.515625 3.65625 C 8.296875 2.988281 8.6875 2.296875 8.6875 1.578125 C 8.6875 1.203125 8.539062 0.890625 8.25 0.640625 C 7.957031 0.398438 7.519531 0.28125 6.9375 0.28125 Z M 3.828125 -8.890625 C 3.472656 -8.367188 3.296875 -7.664062 3.296875 -6.78125 C 3.296875 -5.894531 3.472656 -5.191406 3.828125 -4.671875 C 4.179688 -4.148438 4.625 -3.890625 5.15625 -3.890625 C 5.6875 -3.890625 6.128906 -4.148438 6.484375 -4.671875 C 6.847656 -5.191406 7.03125 -5.894531 7.03125 -6.78125 C 7.03125 -7.664062 6.847656 -8.367188 6.484375 -8.890625 C 6.128906 -9.410156 5.6875 -9.671875 5.15625 -9.671875 C 4.625 -9.671875 4.179688 -9.410156 3.828125 -8.890625 Z M 3.828125 -8.890625 "/></g></g></g><g fill="#000000" fill-opacity="1"><g transform="translate(330.308227, 42.648129)"><g><path d="M 10.015625 -6.6875 L 10.015625 -0.6875 C 10.015625 -0.5 10.117188 -0.40625 10.328125 -0.40625 L 11.40625 -0.40625 L 11.40625 0 L 7.28125 0 L 7.28125 -0.40625 L 8.046875 -0.40625 C 8.253906 -0.40625 8.359375 -0.5 8.359375 -0.6875 L 8.359375 -6.984375 C 8.359375 -7.765625 8.1875 -8.34375 7.84375 -8.71875 C 7.5 -9.09375 7.046875 -9.28125 6.484375 -9.28125 C 5.691406 -9.28125 5.035156 -8.804688 4.515625 -7.859375 C 3.992188 -6.921875 3.734375 -5.578125 3.734375 -3.828125 L 3.734375 -0.734375 C 3.734375 -0.515625 3.835938 -0.40625 4.046875 -0.40625 L 4.8125 -0.40625 L 4.8125 0 L 0.6875 0 L 0.6875 -0.40625 L 1.765625 -0.40625 C 1.972656 -0.40625 2.078125 -0.5 2.078125 -0.6875 L 2.078125 -14.109375 C 2.078125 -14.328125 1.972656 -14.4375 1.765625 -14.4375 L 0.6875 -14.4375 L 0.6875 -14.84375 L 1.8125 -14.84375 C 2.726562 -14.84375 3.367188 -14.890625 3.734375 -14.984375 L 3.734375 -6.921875 C 4.253906 -9.085938 5.398438 -10.171875 7.171875 -10.171875 C 7.960938 -10.171875 8.632812 -9.882812 9.1875 -9.3125 C 9.738281 -8.738281 10.015625 -7.863281 10.015625 -6.6875 Z M 10.015625 -6.6875 "/></g></g></g><g fill="#000000" fill-opacity="1"><g transform="translate(342.402716, 42.648129)"><g><path d="M 3.15625 -12.328125 L 3.5 -12.328125 L 3.5 -9.890625 L 5.796875 -9.890625 L 5.796875 -9.484375 L 3.5 -9.484375 L 3.5 -1.71875 C 3.5 -0.894531 3.726562 -0.484375 4.1875 -0.484375 C 4.40625 -0.484375 4.59375 -0.582031 4.75 -0.78125 C 4.914062 -0.976562 5 -1.207031 5 -1.46875 C 5 -1.726562 4.972656 -1.972656 4.921875 -2.203125 L 5.359375 -2.265625 C 5.421875 -2.035156 5.453125 -1.785156 5.453125 -1.515625 C 5.453125 -0.960938 5.285156 -0.523438 4.953125 -0.203125 C 4.628906 0.117188 4.195312 0.28125 3.65625 0.28125 C 3.125 0.28125 2.691406 0.0585938 2.359375 -0.375 C 2.023438 -0.8125 1.859375 -1.46875 1.859375 -2.34375 L 1.859375 -9.15625 C 1.859375 -9.375 1.75 -9.484375 1.53125 -9.484375 L 0.453125 -9.484375 L 0.453125 -9.890625 L 1.578125 -9.890625 C 2.066406 -9.890625 2.59375 -10.703125 3.15625 -12.328125 Z M 3.15625 -12.328125 "/></g></g></g></g></g></g></svg>